<svg width="513" height="50" viewBox="0 0 513 50" fill="none" xmlns="http://www.w3.org/2000/svg">
<path fill-rule="evenodd" clip-rule="evenodd" d="M336.334 1.2846V18.1638H332.191C330.643 11.2937 326.433 3.2453 316.255 3.2453C303.511 3.2453 300.891 13.053 300.891 25.078C300.891 36.6255 303.255 46.556 315.942 46.556C325.854 46.556 332.546 40.3648 332.546 31.9052H336.909C336.909 43.5232 327.399 50 315.092 50C299.331 50 283.306 38.9491 283.306 25.0793C283.306 11.4165 298.808 0 313.805 0C321.615 0 325.883 1.96815 328.445 3.14998C329.545 3.65705 330.33 4.01937 330.947 4.01937C333.037 4.01937 333.496 2.72787 333.581 1.2846H336.334ZM0.998535 46.6855V50H51.0278V30.8051H46.8962V32.8824C46.8962 43.8435 38.1416 46.6855 27.1658 46.6855H25.2051V5.09596H34.4092V1.78569H0.998535V5.09596H9.35401V46.6855H0.998535ZM115.587 46.6805L90.8788 1.78569H84.6554L63.3891 42.591C62.0779 45.2877 59.263 46.9077 56.2855 46.6791H54.6015V49.9986H74.5488V46.6791H70.9399C68.8506 46.6791 67.0301 46.4299 67.0301 44.1675C67.1015 43.4312 67.3532 42.7241 67.7627 42.1094L70.6084 36.5485H92.1769L97.591 46.6805H89.6266V50H122.498V46.6791H115.59L115.587 46.6805ZM72.3338 33.256L81.0294 16.8686H81.7384L90.4466 33.256H72.3338ZM152.873 50V46.6855H155.278C158.164 46.6855 160.876 45.9362 160.876 41.7648V10.4877C160.876 7.21801 157.692 5.09736 154.576 5.09736H153.161V1.78569H177.14L203.579 30.2711H203.77V8.98778C203.77 6.36108 201.524 5.09596 197.391 5.09596H194.917V1.78569H215.41V5.09596H213.396C209.155 5.09596 207.413 7.05305 207.413 8.77529V50H200.566L164.658 11.1741H164.47V42.1227C164.47 46.0243 166.534 46.6855 171.723 46.6855H173.328V50H152.873ZM276.408 46.6805L251.735 1.78569H245.497L224.202 42.591C222.9 45.2969 220.078 46.9209 217.097 46.6791H215.409V49.9986H235.422V46.6791H231.742C229.669 46.6791 227.857 46.4299 227.857 44.1675C227.933 43.4342 228.18 42.7292 228.577 42.1094L231.442 36.5485H253.042L258.41 46.6805H250.447V50H283.306V46.6791H276.408V46.6805ZM233.193 33.256L241.855 16.8686H242.599L251.269 33.256H233.193ZM344.056 46.6855V50H376.217V46.6855H367.924V5.09596H376.217V1.78569H344.056V5.09596H352.308V46.6855H344.056ZM383.364 25.0062C383.364 10.9529 399.044 0 414.539 0C429.947 0 445.901 10.9419 445.901 25.0062C445.901 39.0706 429.945 50 414.539 50C399.044 50 383.364 39.0595 383.364 25.0062ZM400.733 25.0083C400.733 36.0191 402.337 46.7678 414.613 46.7678H414.614C426.929 46.7678 428.517 36.0909 428.514 25.0083C428.514 13.8498 426.928 3.2487 414.613 3.2487C402.394 3.2487 400.733 13.9353 400.733 25.0083ZM449.475 46.6855V50H469.9V46.6855H468.288C463.063 46.6855 461.038 46.0243 461.038 42.1227V11.1741H461.208L497.127 50H503.975V8.77529C503.975 7.05305 505.766 5.09596 509.978 5.09596H512.011V1.78569H491.502V5.09596H494.009C498.123 5.09596 500.366 6.36108 500.366 8.98778V30.2711H500.13L473.709 1.78569H449.73V5.09736H451.149C454.276 5.09736 457.477 7.21801 457.477 10.4877V41.7648C457.477 45.9362 454.764 46.6855 451.892 46.6855H449.475Z" fill="#006998"/>
</svg>
